<svg width="64" height="64" viewBox="0 0 64 64" fill="none" xmlns="http://www.w3.org/2000/svg">
<g clip-path="url(#clip0_126_57652)">
<rect width="64" height="64" rx="8" fill="black"/>
<path d="M39.001 -7C39.001 -8.10457 39.8964 -9 41.001 -9H49.3887C50.4932 -9 51.3887 -8.10457 51.3887 -7V29.9688C51.3887 35.0638 50.9408 38.9831 50.0449 41.7266C48.8411 45.3099 46.6576 48.1934 43.4941 50.377C40.3307 52.5326 36.1595 53.6104 30.9805 53.6104C24.9056 53.6104 20.2305 51.9167 16.9551 48.5293C13.9836 45.4309 12.3485 41.0307 12.0497 35.3287C11.9964 34.3105 12.7667 33.4501 13.7797 33.334L21.5749 32.4399C22.7306 32.3073 23.746 33.1866 23.8603 34.3443C24.0984 36.7542 24.5681 38.5291 25.2695 39.6689C26.6133 41.8805 28.6569 42.9863 31.4004 42.9863C34.1719 42.9863 36.1315 42.2025 37.2793 40.6348C38.4271 39.0391 39.001 35.7497 39.001 30.7666V-7Z" fill="white"/>
</g>
<defs>
<clipPath id="clip0_126_57652">
<rect width="64" height="64" rx="8" fill="white"/>
</clipPath>
</defs>
</svg>
