<svg width="32" height="32" viewBox="0 0 32 32" fill="none" xmlns="http://www.w3.org/2000/svg">
<g clip-path="url(#clip0_128_57682)">
<rect width="32" height="32" rx="4" fill="black"/>
<path d="M19.7025 -4.97781C19.7025 -5.54235 20.1577 -6 20.7192 -6H24.9833C25.5448 -6 26 -5.54235 26 -4.9778V13.9168C26 16.5209 25.7723 18.524 25.3169 19.9262C24.7049 21.7577 23.5948 23.2314 21.9867 24.3474C20.3785 25.4491 18.258 26 15.6251 26C12.5368 26 10.1602 25.1344 8.49505 23.4031C6.98446 21.8195 6.15322 19.5706 6.00133 16.6563C5.9742 16.1359 6.36581 15.6962 6.88079 15.6368L10.8436 15.1798C11.4311 15.1121 11.9473 15.5615 12.0055 16.1531C12.1265 17.3849 12.3653 18.292 12.7219 18.8746C13.405 20.0049 14.4439 20.5701 15.8386 20.5701C17.2475 20.5701 18.2437 20.1695 18.8272 19.3682C19.4107 18.5527 19.7025 16.8715 19.7025 14.3246V-4.97781Z" fill="white"/>
</g>
<defs>
<clipPath id="clip0_128_57682">
<rect width="32" height="32" rx="4" fill="white"/>
</clipPath>
</defs>
</svg>
