<svg id="Layer_1_copy" data-name="Layer 1 copy" xmlns="http://www.w3.org/2000/svg" xmlns:xlink="http://www.w3.org/1999/xlink" viewBox="0 0 400 400"><defs><style>.cls-1,.cls-4{fill:none;}.cls-2{clip-path:url(#clip-path);}.cls-3{fill:#131313;}.cls-4{stroke:#fff;}.cls-5{fill:#1d1d1d;}.cls-6{fill:#2d82d2;}.cls-7{fill:#272727;}</style><clipPath id="clip-path"><rect class="cls-1" width="400" height="400"/></clipPath></defs><g class="cls-2"><g id="WX_1" data-name="WX 1"><g id="Group_24" data-name="Group 24"><g id="Rectangle_93" data-name="Rectangle 93"><path class="cls-3" d="M9,297H392v4a8,8,0,0,1-8,8H17a8,8,0,0,1-8-8v-4Z"/><path class="cls-4" d="M10,297.5H391a.5.5,0,0,1,.5.5v3a7.5,7.5,0,0,1-7.5,7.5H17A7.5,7.5,0,0,1,9.5,301v-3A.5.5,0,0,1,10,297.5Z"/></g><g id="Rectangle_92" data-name="Rectangle 92"><path class="cls-3" d="M65,91H340a12,12,0,0,1,12,12V298H53V103A12,12,0,0,1,65,91Z"/><path class="cls-4" d="M65,91.5H340A11.5,11.5,0,0,1,351.5,103V297a.5.5,0,0,1-.5.5H54a.5.5,0,0,1-.5-.5V103A11.5,11.5,0,0,1,65,91.5Z"/></g><g id="Rectangle_94" data-name="Rectangle 94"><rect class="cls-1" x="65" y="105" width="274" height="180" rx="2"/><rect class="cls-4" x="65.5" y="105.5" width="273" height="179" rx="1.5"/></g><path id="Path_28" data-name="Path 28" class="cls-5" d="M73.31,109H332.08C334.47,109,69,279.73,69,278.7V110.87C69,109.83,70.93,109,73.31,109Z"/><g id="Woolworths_W_Logo" data-name="Woolworths W Logo"><path class="cls-6" d="M237.37,234.84a30.67,30.67,0,0,1-10.43,2.23c-10.35.27-12.36-7.27-12.44-12.75V184.07h26V164.49H214.59V131.55H195.65a1,1,0,0,0-.93,1c-1.11,10.08-5.83,27.77-25.44,34.85v16.7h13.08v42.25c0,14.46,10.67,35,38.84,34.53,9.5-.16,20.06-4.14,22.39-7.58l-6.22-18.43"/></g><g id="Rectangle_91" data-name="Rectangle 91"><rect class="cls-6" x="236" y="123.22" width="144" height="185.79" rx="8"/><rect class="cls-4" x="236.5" y="123.72" width="143" height="184.79" rx="7.5"/></g><g id="Rectangle_97" data-name="Rectangle 97"><rect class="cls-3" x="241" y="128.84" width="134" height="174.17" rx="4"/><rect class="cls-4" x="241.5" y="129.34" width="133" height="173.17" rx="3.5"/></g><g id="Path_27" data-name="Path 27"><path class="cls-7" d="M245.5,295.66V131.83a1.46,1.46,0,0,1,1.56-1.34H369.72c-3.41,5.08-27.6,37.54-62,83.18C276.32,255.41,250.41,289.53,245.5,295.66Z"/><path class="cls-5" d="M247.06,131a1,1,0,0,0-1.06.84V294.22c6.59-8.38,31.53-41.24,61.33-80.81C340.25,169.69,363.9,138,368.77,131Zm0-1H370.59c1.14,0-124.82,167-125.59,167h0V131.83A2,2,0,0,1,247.06,130Z"/></g><g id="Rectangle_90" data-name="Rectangle 90"><rect class="cls-3" x="230.44" y="181" width="60" height="128" rx="8"/><rect class="cls-4" x="230.94" y="181.5" width="59" height="127" rx="7.5"/></g><path id="Path_26" data-name="Path 26" class="cls-5" d="M241.87,188h41.78c2.21,0-45.78,113.21-45.78,111V192A4,4,0,0,1,241.87,188Z"/><g id="Rectangle_95" data-name="Rectangle 95"><rect class="cls-1" x="233.62" y="184" width="54" height="122" rx="6"/><rect class="cls-4" x="234.12" y="184.5" width="53" height="121" rx="5.5"/></g><g id="Rectangle_96" data-name="Rectangle 96"><path class="cls-6" d="M244.2,184h34v2a4,4,0,0,1-4,4h-26a4,4,0,0,1-4-4v-2Z"/><path class="cls-4" d="M245.2,184.5h32a.5.5,0,0,1,.5.5v1a3.5,3.5,0,0,1-3.5,3.5h-26a3.5,3.5,0,0,1-3.5-3.5v-1A.5.5,0,0,1,245.2,184.5Z"/></g></g></g></g></svg>