<svg id="Layer_1" data-name="Layer 1" xmlns="http://www.w3.org/2000/svg" xmlns:xlink="http://www.w3.org/1999/xlink" viewBox="0 0 600 600"><defs><style>.cls-1,.cls-4{fill:none;}.cls-2{clip-path:url(#clip-path);}.cls-3{fill:#131313;}.cls-4{stroke:#fff;}.cls-5{fill:#1d1d1d;}.cls-6{fill:#2d82d2;}.cls-7{fill:#272727;}</style><clipPath id="clip-path"><rect class="cls-1" width="600" height="600"/></clipPath></defs><g class="cls-2"><g id="WX_1" data-name="WX 1"><g id="Group_24" data-name="Group 24"><g id="Rectangle_93" data-name="Rectangle 93"><path class="cls-3" d="M109,397H492v4a8,8,0,0,1-8,8H117a8,8,0,0,1-8-8v-4Z"/><path class="cls-4" d="M110,397.5H491a.5.5,0,0,1,.5.5v3a7.5,7.5,0,0,1-7.5,7.5H117a7.5,7.5,0,0,1-7.5-7.5v-3A.5.5,0,0,1,110,397.5Z"/></g><g id="Rectangle_92" data-name="Rectangle 92"><path class="cls-3" d="M165,191H440a12,12,0,0,1,12,12V398H153V203A12,12,0,0,1,165,191Z"/><path class="cls-4" d="M165,191.5H440A11.5,11.5,0,0,1,451.5,203V397a.5.5,0,0,1-.5.5H154a.5.5,0,0,1-.5-.5V203A11.5,11.5,0,0,1,165,191.5Z"/></g><g id="Rectangle_94" data-name="Rectangle 94"><rect class="cls-1" x="165" y="205" width="274" height="180" rx="2"/><rect class="cls-4" x="165.5" y="205.5" width="273" height="179" rx="1.5"/></g><path id="Path_28" data-name="Path 28" class="cls-5" d="M173.31,209H432.08C434.47,209,169,379.73,169,378.7V210.87C169,209.83,170.93,209,173.31,209Z"/><path class="cls-6" d="M331.35,338.45a31.91,31.91,0,0,1-10.4,2.2c-10.4.3-12.4-7.3-12.4-12.7v-40.3h26v-19.5h-26v-33h-18.9a1,1,0,0,0-.9,1c-1.1,10.1-5.8,27.8-25.4,34.8v16.7h13.1v42.2c0,14.5,10.7,35,38.8,34.5,9.5-.2,20.1-4.1,22.4-7.6l-6.3-18.3"/><g id="Rectangle_91" data-name="Rectangle 91"><rect class="cls-6" x="336" y="223.22" width="144" height="185.79" rx="8"/><rect class="cls-4" x="336.5" y="223.72" width="143" height="184.79" rx="7.5"/></g><g id="Rectangle_97" data-name="Rectangle 97"><rect class="cls-3" x="341" y="228.84" width="134" height="174.17" rx="4"/><rect class="cls-4" x="341.5" y="229.34" width="133" height="173.17" rx="3.5"/></g><g id="Path_27" data-name="Path 27"><path class="cls-7" d="M345.5,395.66V231.83a1.46,1.46,0,0,1,1.56-1.34H469.72c-3.41,5.08-27.6,37.54-62,83.18C376.32,355.41,350.41,389.53,345.5,395.66Z"/><path class="cls-5" d="M347.06,231a1,1,0,0,0-1.06.84V394.22c6.59-8.38,31.53-41.24,61.33-80.81C440.25,269.69,463.9,238,468.77,231H347.06m0-1H470.59c1.14,0-124.82,167-125.59,167h0V231.83A2,2,0,0,1,347.06,230Z"/></g><g id="Rectangle_90" data-name="Rectangle 90"><rect class="cls-3" x="330.44" y="281" width="60" height="128" rx="8"/><rect class="cls-4" x="330.94" y="281.5" width="59" height="127" rx="7.5"/></g><path id="Path_26" data-name="Path 26" class="cls-5" d="M341.87,288h41.78c2.21,0-45.78,113.21-45.78,111V292A4,4,0,0,1,341.87,288Z"/><g id="Rectangle_95" data-name="Rectangle 95"><rect class="cls-1" x="333.62" y="284" width="54" height="122" rx="6"/><rect class="cls-4" x="334.12" y="284.5" width="53" height="121" rx="5.5"/></g><g id="Rectangle_96" data-name="Rectangle 96"><path class="cls-6" d="M344.2,284h34v2a4,4,0,0,1-4,4h-26a4,4,0,0,1-4-4v-2Z"/><path class="cls-4" d="M345.2,284.5h32a.5.5,0,0,1,.5.5v1a3.5,3.5,0,0,1-3.5,3.5h-26a3.5,3.5,0,0,1-3.5-3.5v-1A.5.5,0,0,1,345.2,284.5Z"/></g></g></g></g></svg>