<svg xmlns="http://www.w3.org/2000/svg" xmlns:xlink="http://www.w3.org/1999/xlink" viewBox="0 0 1920 1080">
  <defs>
    <style>
      .cls-1 {
        clip-path: url(#clip-CT);
      }

      .cls-2, .cls-9 {
        fill: none;
      }

      .cls-2, .cls-3, .cls-5 {
        stroke: #fff;
      }

      .cls-2, .cls-3 {
        stroke-width: 2px;
      }

      .cls-3, .cls-4, .cls-5 {
        fill: #1f1f1f;
      }

      .cls-6, .cls-7 {
        fill: #fff;
      }

      .cls-6 {
        font-size: 20px;
        font-family: Barlow-Medium, Barlow;
        font-weight: 500;
      }

      .cls-7 {
        font-size: 16px;
        font-family: Barlow-Regular, Barlow;
      }

      .cls-8 {
        stroke: none;
      }
    </style>
    <clipPath id="clip-CT">
      <rect width="1920" height="1080"/>
    </clipPath>
  </defs>
  <g id="CT" class="cls-1">
    <rect class="cls-4" width="1920" height="1080"/>
    <g id="Rectangle_1" data-name="Rectangle 1" class="cls-2">
      <rect class="cls-8" width="945" height="340"/>
      <rect class="cls-9" x="1" y="1" width="943" height="338"/>
    </g>
    <g id="Rectangle_2" data-name="Rectangle 2" class="cls-2" transform="translate(0 370)">
      <rect class="cls-8" width="945" height="340"/>
      <rect class="cls-9" x="1" y="1" width="943" height="338"/>
    </g>
    <g id="Rectangle_3" data-name="Rectangle 3" class="cls-2" transform="translate(0 740)">
      <rect class="cls-8" width="945" height="340"/>
      <rect class="cls-9" x="1" y="1" width="943" height="338"/>
    </g>
    <g id="Rectangle_4" data-name="Rectangle 4" class="cls-2" transform="translate(975)">
      <rect class="cls-8" width="945" height="340"/>
      <rect class="cls-9" x="1" y="1" width="943" height="338"/>
    </g>
    <g id="Rectangle_5" data-name="Rectangle 5" class="cls-2" transform="translate(975 370)">
      <rect class="cls-8" width="945" height="340"/>
      <rect class="cls-9" x="1" y="1" width="943" height="338"/>
    </g>
    <g id="Rectangle_6" data-name="Rectangle 6" class="cls-2" transform="translate(975 740)">
      <rect class="cls-8" width="945" height="340"/>
      <rect class="cls-9" x="1" y="1" width="943" height="338"/>
    </g>
    <g id="Ellipse_1" data-name="Ellipse 1" class="cls-3" transform="translate(840 235)">
      <circle class="cls-8" cx="120" cy="120" r="120"/>
      <circle class="cls-9" cx="120" cy="120" r="119"/>
    </g>
    <rect id="Rectangle_7" data-name="Rectangle 7" class="cls-4" width="30" height="710" transform="translate(945)"/>
    <rect id="Rectangle_8" data-name="Rectangle 8" class="cls-4" width="30" height="710" transform="translate(1315 340) rotate(90)"/>
    <g id="Group_4" data-name="Group 4">
      <g id="Group_2" data-name="Group 2" transform="translate(963.566 304.682)">
        <g id="Ellipse_2" data-name="Ellipse 2" class="cls-5" transform="translate(18.777)">
          <circle class="cls-8" cx="10.432" cy="10.432" r="10.432"/>
          <circle class="cls-9" cx="10.432" cy="10.432" r="9.932"/>
        </g>
        <g id="Ellipse_3" data-name="Ellipse 3" class="cls-5" transform="translate(8.346 25.037)">
          <circle class="cls-8" cx="20.864" cy="20.864" r="20.864"/>
          <circle class="cls-9" cx="20.864" cy="20.864" r="20.364"/>
        </g>
        <rect id="Rectangle_9" data-name="Rectangle 9" class="cls-4" width="59.983" height="29.731" transform="translate(0 40.163)"/>
      </g>
      <g id="Group_3" data-name="Group 3" transform="translate(896 304.682)">
        <g id="Ellipse_2-2" data-name="Ellipse 2" class="cls-5" transform="translate(18.777)">
          <circle class="cls-8" cx="10.432" cy="10.432" r="10.432"/>
          <circle class="cls-9" cx="10.432" cy="10.432" r="9.932"/>
        </g>
        <g id="Ellipse_3-2" data-name="Ellipse 3" class="cls-5" transform="translate(8.346 25.037)">
          <circle class="cls-8" cx="20.864" cy="20.864" r="20.864"/>
          <circle class="cls-9" cx="20.864" cy="20.864" r="20.364"/>
        </g>
        <rect id="Rectangle_9-2" data-name="Rectangle 9" class="cls-4" width="59.983" height="29.731" transform="translate(0 40.163)"/>
      </g>
      <g id="Group_1" data-name="Group 1" transform="translate(917.021 298)">
        <g id="Ellipse_2-3" data-name="Ellipse 2" class="cls-5" transform="translate(27.027)">
          <circle class="cls-8" cx="15.015" cy="15.015" r="15.015"/>
          <circle class="cls-9" cx="15.015" cy="15.015" r="14.515"/>
        </g>
        <g id="Ellipse_3-3" data-name="Ellipse 3" class="cls-5" transform="translate(12.012 36.035)">
          <circle class="cls-8" cx="30.03" cy="30.03" r="30.03"/>
          <circle class="cls-9" cx="30.03" cy="30.03" r="29.53"/>
        </g>
        <rect id="Rectangle_9-3" data-name="Rectangle 9" class="cls-4" width="86.335" height="42.792" transform="translate(0 57.807)"/>
      </g>
      <text id="Headquarters_Team" data-name="Headquarters
Team" class="cls-6" transform="translate(960 385)"><tspan x="-59.85" y="0">Headquarters</tspan><tspan x="-23.8" y="24">Team</tspan></text>
    </g>
    <g id="Group_35" data-name="Group 35" transform="translate(100 38)">
      <text id="SAYS" class="cls-6" transform="translate(348 60)"><tspan x="0" y="0">SAYS</tspan></text>
      <g id="Group_5" data-name="Group 5" transform="translate(0 2)">
        <g id="Rectangle_10" data-name="Rectangle 10" class="cls-5" transform="translate(40 102)">
          <rect class="cls-8" width="120" height="120"/>
          <rect class="cls-9" x="0.5" y="0.5" width="119" height="119"/>
        </g>
        <text id="Would_this_information_be_useful_" data-name="Would this information be useful?" class="cls-7" transform="translate(56 118)"><tspan x="0" y="16">Would this </tspan><tspan x="0" y="35">information </tspan><tspan x="0" y="54">be useful?</tspan></text>
      </g>
      <g id="Group_6" data-name="Group 6" transform="translate(136 2)">
        <g id="Rectangle_10-2" data-name="Rectangle 10" class="cls-5" transform="translate(40 102)">
          <rect class="cls-8" width="120" height="120"/>
          <rect class="cls-9" x="0.5" y="0.5" width="119" height="119"/>
        </g>
        <text id="There_s_so_much_data_this_time_" data-name="There&apos;s so much data this time!" class="cls-7" transform="translate(56 118)"><tspan x="0" y="16">There&apos;s so </tspan><tspan x="0" y="35">much data </tspan><tspan x="0" y="54">this time!</tspan></text>
      </g>
      <g id="Group_7" data-name="Group 7" transform="translate(272 2)">
        <g id="Rectangle_10-3" data-name="Rectangle 10" class="cls-5" transform="translate(40 102)">
          <rect class="cls-8" width="120" height="120"/>
          <rect class="cls-9" x="0.5" y="0.5" width="119" height="119"/>
        </g>
        <text id="I_can_t_understand" data-name="I can&apos;t understand" class="cls-7" transform="translate(56 118)"><tspan x="0" y="16">I can&apos;t </tspan><tspan x="0" y="35">understand</tspan></text>
      </g>
      <g id="Group_8" data-name="Group 8" transform="translate(408 2)">
        <g id="Rectangle_10-4" data-name="Rectangle 10" class="cls-5" transform="translate(40 102)">
          <rect class="cls-8" width="120" height="120"/>
          <rect class="cls-9" x="0.5" y="0.5" width="119" height="119"/>
        </g>
        <text id="I_m_done_" data-name="I&apos;m done!" class="cls-7" transform="translate(56 118)"><tspan x="0" y="16">I&apos;m done!</tspan></text>
      </g>
      <g id="Group_9" data-name="Group 9" transform="translate(544 2)">
        <g id="Rectangle_10-5" data-name="Rectangle 10" class="cls-5" transform="translate(40 102)">
          <rect class="cls-8" width="120" height="120"/>
          <rect class="cls-9" x="0.5" y="0.5" width="119" height="119"/>
        </g>
        <text id="Have_you_finished_the_report_" data-name="Have you finished the report?" class="cls-7" transform="translate(56 118)"><tspan x="0" y="16">Have you </tspan><tspan x="0" y="35">finished the </tspan><tspan x="0" y="54">report?</tspan></text>
      </g>
    </g>
    <g id="Group_34" data-name="Group 34" transform="translate(-168 38)">
      <text id="THINKS" class="cls-6" transform="translate(1648 60)"><tspan x="-66.76" y="0">THINKS</tspan></text>
      <g id="Group_11" data-name="Group 11" transform="translate(1312 2)">
        <g id="Rectangle_10-6" data-name="Rectangle 10" class="cls-5" transform="translate(40 102)">
          <rect class="cls-8" width="120" height="120"/>
          <rect class="cls-9" x="0.5" y="0.5" width="119" height="119"/>
        </g>
        <text id="Better_way_to_present_information_" data-name="Better way to present information?" class="cls-7" transform="translate(56 118)"><tspan x="0" y="16">Better way </tspan><tspan x="0" y="35">to present </tspan><tspan x="0" y="54">information?</tspan></text>
      </g>
      <g id="Group_12" data-name="Group 12" transform="translate(1448 2)">
        <g id="Rectangle_10-7" data-name="Rectangle 10" class="cls-5" transform="translate(40 102)">
          <rect class="cls-8" width="120" height="120"/>
          <rect class="cls-9" x="0.5" y="0.5" width="119" height="119"/>
        </g>
        <text id="Nearly_done..." data-name="Nearly done..." class="cls-7" transform="translate(56 118)"><tspan x="0" y="16">Nearly </tspan><tspan x="0" y="35">done...</tspan></text>
      </g>
      <g id="Group_13" data-name="Group 13" transform="translate(1584 2)">
        <g id="Rectangle_10-8" data-name="Rectangle 10" class="cls-5" transform="translate(40 102)">
          <rect class="cls-8" width="120" height="120"/>
          <rect class="cls-9" x="0.5" y="0.5" width="119" height="119"/>
        </g>
        <text id="Have_they_received_the_report_" data-name="Have they received the report?" class="cls-7" transform="translate(56 118)"><tspan x="0" y="16">Have they </tspan><tspan x="0" y="35">received the </tspan><tspan x="0" y="54">report?</tspan></text>
      </g>
      <g id="Group_14" data-name="Group 14" transform="translate(1720 2)">
        <g id="Rectangle_10-9" data-name="Rectangle 10" class="cls-5" transform="translate(40 102)">
          <rect class="cls-8" width="120" height="120"/>
          <rect class="cls-9" x="0.5" y="0.5" width="119" height="119"/>
        </g>
        <text id="Less_data..." data-name="Less data..." class="cls-7" transform="translate(56 118)"><tspan x="0" y="16">Less data...</tspan></text>
      </g>
    </g>
    <g id="Group_37" data-name="Group 37" transform="translate(-100 32)">
      <text id="FEELS" class="cls-6" transform="translate(1516 430)"><tspan x="0" y="0">FEELS</tspan></text>
      <g id="Group_15" data-name="Group 15" transform="translate(1312 372)">
        <g id="Rectangle_10-10" data-name="Rectangle 10" class="cls-5" transform="translate(40 102)">
          <rect class="cls-8" width="120" height="120"/>
          <rect class="cls-9" x="0.5" y="0.5" width="119" height="119"/>
        </g>
        <text id="Bogged_down_with_data" data-name="Bogged down with data" class="cls-7" transform="translate(56 118)"><tspan x="0" y="16">Bogged </tspan><tspan x="0" y="35">down with </tspan><tspan x="0" y="54">data</tspan></text>
      </g>
      <g id="Group_16" data-name="Group 16" transform="translate(1448 372)">
        <g id="Rectangle_10-11" data-name="Rectangle 10" class="cls-5" transform="translate(40 102)">
          <rect class="cls-8" width="120" height="120"/>
          <rect class="cls-9" x="0.5" y="0.5" width="119" height="119"/>
        </g>
        <text id="Tired" class="cls-7" transform="translate(56 118)"><tspan x="0" y="16">Tired</tspan></text>
      </g>
      <g id="Group_17" data-name="Group 17" transform="translate(1584 372)">
        <g id="Rectangle_10-12" data-name="Rectangle 10" class="cls-5" transform="translate(40 102)">
          <rect class="cls-8" width="120" height="120"/>
          <rect class="cls-9" x="0.5" y="0.5" width="119" height="119"/>
        </g>
        <text id="Bombarded" class="cls-7" transform="translate(56 118)"><tspan x="0" y="16">Bombarded</tspan></text>
      </g>
      <g id="Group_18" data-name="Group 18" transform="translate(1720 372)">
        <g id="Rectangle_10-13" data-name="Rectangle 10" class="cls-5" transform="translate(40 102)">
          <rect class="cls-8" width="120" height="120"/>
          <rect class="cls-9" x="0.5" y="0.5" width="119" height="119"/>
        </g>
        <text id="Confused" class="cls-7" transform="translate(56 118)"><tspan x="0" y="16">Confused</tspan></text>
      </g>
      <g id="Group_19" data-name="Group 19" transform="translate(1176 372)">
        <g id="Rectangle_10-14" data-name="Rectangle 10" class="cls-5" transform="translate(40 102)">
          <rect class="cls-8" width="120" height="120"/>
          <rect class="cls-9" x="0.5" y="0.5" width="119" height="119"/>
        </g>
        <text id="Pushed_for_time" data-name="Pushed for time" class="cls-7" transform="translate(56 118)"><tspan x="0" y="16">Pushed for </tspan><tspan x="0" y="35">time</tspan></text>
      </g>
    </g>
    <g id="Group_36" data-name="Group 36" transform="translate(100 32)">
      <text id="DOES" class="cls-6" transform="translate(348 430)"><tspan x="0" y="0">DOES</tspan></text>
      <g id="Group_20" data-name="Group 20" transform="translate(0 372)">
        <g id="Rectangle_10-15" data-name="Rectangle 10" class="cls-5" transform="translate(40 102)">
          <rect class="cls-8" width="120" height="120"/>
          <rect class="cls-9" x="0.5" y="0.5" width="119" height="119"/>
        </g>
        <text id="Selects_relevant_information_and_data" data-name="Selects relevant information and data" class="cls-7" transform="translate(56 118)"><tspan x="0" y="16">Selects </tspan><tspan x="0" y="35">relevant </tspan><tspan x="0" y="54">information </tspan><tspan x="0" y="73">and data</tspan></text>
      </g>
      <g id="Group_21" data-name="Group 21" transform="translate(136 372)">
        <g id="Rectangle_10-16" data-name="Rectangle 10" class="cls-5" transform="translate(40 102)">
          <rect class="cls-8" width="120" height="120"/>
          <rect class="cls-9" x="0.5" y="0.5" width="119" height="119"/>
        </g>
        <text id="Edits_report" data-name="Edits report" class="cls-7" transform="translate(56 118)"><tspan x="0" y="16">Edits report</tspan></text>
      </g>
      <g id="Group_22" data-name="Group 22" transform="translate(272 372)">
        <g id="Rectangle_10-17" data-name="Rectangle 10" class="cls-5" transform="translate(40 102)">
          <rect class="cls-8" width="120" height="120"/>
          <rect class="cls-9" x="0.5" y="0.5" width="119" height="119"/>
        </g>
        <text id="Forward_report_to_CCF" data-name="Forward report to CCF" class="cls-7" transform="translate(56 118)"><tspan x="0" y="16">Forward </tspan><tspan x="0" y="35">report to </tspan><tspan x="0" y="54">CCF</tspan></text>
      </g>
      <g id="Group_23" data-name="Group 23" transform="translate(408 372)">
        <g id="Rectangle_10-18" data-name="Rectangle 10" class="cls-5" transform="translate(40 102)">
          <rect class="cls-8" width="120" height="120"/>
          <rect class="cls-9" x="0.5" y="0.5" width="119" height="119"/>
        </g>
        <text id="Download_data" data-name="Download data" class="cls-7" transform="translate(56 118)"><tspan x="0" y="16">Download </tspan><tspan x="0" y="35">data</tspan></text>
      </g>
      <g id="Group_24" data-name="Group 24" transform="translate(544 372)">
        <g id="Rectangle_10-19" data-name="Rectangle 10" class="cls-5" transform="translate(40 102)">
          <rect class="cls-8" width="120" height="120"/>
          <rect class="cls-9" x="0.5" y="0.5" width="119" height="119"/>
        </g>
        <text id="Compile_report" data-name="Compile report" class="cls-7" transform="translate(56 118)"><tspan x="0" y="16">Compile </tspan><tspan x="0" y="35">report</tspan></text>
      </g>
    </g>
    <g id="Group_38" data-name="Group 38" transform="translate(100 38)">
      <text id="PAINS" class="cls-6" transform="translate(345 800)"><tspan x="0" y="0">PAINS</tspan></text>
      <g id="Group_25" data-name="Group 25" transform="translate(0 742)">
        <g id="Rectangle_10-20" data-name="Rectangle 10" class="cls-5" transform="translate(40 102)">
          <rect class="cls-8" width="120" height="120"/>
          <rect class="cls-9" x="0.5" y="0.5" width="119" height="119"/>
        </g>
        <text id="Time_to_make_report" data-name="Time to make report" class="cls-7" transform="translate(56 118)"><tspan x="0" y="16">Time to </tspan><tspan x="0" y="35">make report</tspan></text>
      </g>
      <g id="Group_26" data-name="Group 26" transform="translate(136 742)">
        <g id="Rectangle_10-21" data-name="Rectangle 10" class="cls-5" transform="translate(40 102)">
          <rect class="cls-8" width="120" height="120"/>
          <rect class="cls-9" x="0.5" y="0.5" width="119" height="119"/>
        </g>
        <text id="Time_taken_to_distribute_" data-name="Time taken to distribute " class="cls-7" transform="translate(56 118)"><tspan x="0" y="16">Time taken </tspan><tspan x="0" y="35">to distribute </tspan></text>
      </g>
      <g id="Group_27" data-name="Group 27" transform="translate(272 742)">
        <g id="Rectangle_10-22" data-name="Rectangle 10" class="cls-5" transform="translate(40 102)">
          <rect class="cls-8" width="120" height="120"/>
          <rect class="cls-9" x="0.5" y="0.5" width="119" height="119"/>
        </g>
        <text id="Difficult_to_interpret_information" data-name="Difficult to interpret information" class="cls-7" transform="translate(56 118)"><tspan x="0" y="16">Difficult to </tspan><tspan x="0" y="35">interpret </tspan><tspan x="0" y="54">information</tspan></text>
      </g>
      <g id="Group_28" data-name="Group 28" transform="translate(408 742)">
        <g id="Rectangle_10-23" data-name="Rectangle 10" class="cls-5" transform="translate(40 102)">
          <rect class="cls-8" width="120" height="120"/>
          <rect class="cls-9" x="0.5" y="0.5" width="119" height="119"/>
        </g>
        <text id="Data_not_up_to_date" data-name="Data not up to date" class="cls-7" transform="translate(56 118)"><tspan x="0" y="16">Data not up </tspan><tspan x="0" y="35">to date</tspan></text>
      </g>
      <g id="Group_29" data-name="Group 29" transform="translate(544 742)">
        <g id="Rectangle_10-24" data-name="Rectangle 10" class="cls-5" transform="translate(40 102)">
          <rect class="cls-8" width="120" height="120"/>
          <rect class="cls-9" x="0.5" y="0.5" width="119" height="119"/>
        </g>
        <text id="Connectivity_status" data-name="Connectivity status" class="cls-7" transform="translate(56 118)"><tspan x="0" y="16">Connectivity </tspan><tspan x="0" y="35">status</tspan></text>
      </g>
    </g>
    <g id="Group_39" data-name="Group 39" transform="translate(-169 38)">
      <text id="GAINS" class="cls-6" transform="translate(1588 800)"><tspan x="0" y="0">GAINS</tspan></text>
      <g id="Group_30" data-name="Group 30" transform="translate(1313 742)">
        <g id="Rectangle_10-25" data-name="Rectangle 10" class="cls-5" transform="translate(40 102)">
          <rect class="cls-8" width="120" height="120"/>
          <rect class="cls-9" x="0.5" y="0.5" width="119" height="119"/>
        </g>
        <text id="Streamlined_process" data-name="Streamlined process" class="cls-7" transform="translate(56 118)"><tspan x="0" y="16">Streamlined </tspan><tspan x="0" y="35">process</tspan></text>
      </g>
      <g id="Group_31" data-name="Group 31" transform="translate(1449 742)">
        <g id="Rectangle_10-26" data-name="Rectangle 10" class="cls-5" transform="translate(40 102)">
          <rect class="cls-8" width="120" height="120"/>
          <rect class="cls-9" x="0.5" y="0.5" width="119" height="119"/>
        </g>
        <text id="Faster_distribution" data-name="Faster distribution" class="cls-7" transform="translate(56 118)"><tspan x="0" y="16">Faster </tspan><tspan x="0" y="35">distribution</tspan></text>
      </g>
      <g id="Group_32" data-name="Group 32" transform="translate(1585 742)">
        <g id="Rectangle_10-27" data-name="Rectangle 10" class="cls-5" transform="translate(40 102)">
          <rect class="cls-8" width="120" height="120"/>
          <rect class="cls-9" x="0.5" y="0.5" width="119" height="119"/>
        </g>
        <text id="Provide_actionable_insight" data-name="Provide actionable insight" class="cls-7" transform="translate(56 118)"><tspan x="0" y="16">Provide </tspan><tspan x="0" y="35">actionable </tspan><tspan x="0" y="54">insight</tspan></text>
      </g>
      <g id="Group_33" data-name="Group 33" transform="translate(1721 742)">
        <g id="Rectangle_10-28" data-name="Rectangle 10" class="cls-5" transform="translate(40 102)">
          <rect class="cls-8" width="120" height="120"/>
          <rect class="cls-9" x="0.5" y="0.5" width="119" height="119"/>
        </g>
        <text id="Faster_distribution-2" data-name="Faster distribution" class="cls-7" transform="translate(56 118)"><tspan x="0" y="16">Faster </tspan><tspan x="0" y="35">distribution</tspan></text>
      </g>
    </g>
  </g>
</svg>
