<svg xmlns="http://www.w3.org/2000/svg" xmlns:xlink="http://www.w3.org/1999/xlink" viewBox="0 0 600 600">
  <defs>
    <style>
      .cls-1 {
        clip-path: url(#clip-TRIANGLES);
      }

      .cls-2 {
        fill: #131313;
      }

      .cls-2, .cls-4 {
        stroke: #fff;
      }

      .cls-3 {
        fill: #fce630;
      }

      .cls-4, .cls-8 {
        fill: none;
      }

      .cls-5 {
        fill: #565656;
        opacity: 0.1;
      }

      .cls-6 {
        fill: #272727;
      }

      .cls-7 {
        stroke: none;
      }
    </style>
    <clipPath id="clip-TRIANGLES">
      <rect width="600" height="600"/>
    </clipPath>
  </defs>
  <g id="TRIANGLES" class="cls-1">
    <g id="Rectangle_98" data-name="Rectangle 98" class="cls-2" transform="translate(176 180)">
      <rect class="cls-7" width="120" height="240" rx="16"/>
      <rect class="cls-8" x="0.5" y="0.5" width="119" height="239" rx="15.5"/>
    </g>
    <path id="Rectangle_102" data-name="Rectangle 102" class="cls-3" d="M7,0H111a7,7,0,0,1,7,7v9a0,0,0,0,1,0,0H0a0,0,0,0,1,0,0V7A7,7,0,0,1,7,0Z" transform="translate(177 197)"/>
    <g id="Rectangle_99" data-name="Rectangle 99" class="cls-4" transform="translate(176 196)">
      <rect class="cls-7" width="120" height="208" rx="8"/>
      <rect class="cls-8" x="0.5" y="0.5" width="119" height="207" rx="7.5"/>
    </g>
    <path id="Rectangle_101" data-name="Rectangle 101" class="cls-5" d="M0,0H0A4,4,0,0,1,4,4V193a4,4,0,0,1-4,4H0a0,0,0,0,1,0,0V0A0,0,0,0,1,0,0Z" transform="translate(289 201)"/>
    <g id="Rectangle_103" data-name="Rectangle 103" class="cls-2" transform="translate(304 180)">
      <rect class="cls-7" width="120" height="240" rx="16"/>
      <rect class="cls-8" x="0.5" y="0.5" width="119" height="239" rx="15.5"/>
    </g>
    <g id="Rectangle_104" data-name="Rectangle 104" class="cls-4" transform="translate(304 196)">
      <rect class="cls-7" width="120" height="208" rx="8"/>
      <rect class="cls-8" x="0.5" y="0.5" width="119" height="207" rx="7.5"/>
    </g>
    <path id="Rectangle_118" data-name="Rectangle 118" class="cls-3" d="M7,0H111a7,7,0,0,1,7,7v9a0,0,0,0,1,0,0H0a0,0,0,0,1,0,0V7A7,7,0,0,1,7,0Z" transform="translate(305 197)"/>
    <path id="Rectangle_105" data-name="Rectangle 105" class="cls-5" d="M4,0H4A0,0,0,0,1,4,0V197a0,0,0,0,1,0,0H4a4,4,0,0,1-4-4V4A4,4,0,0,1,4,0Z" transform="translate(307 201)"/>
    <path id="Rectangle_106" data-name="Rectangle 106" class="cls-5" d="M0,0H0A4,4,0,0,1,4,4V193a4,4,0,0,1-4,4H0a0,0,0,0,1,0,0V0A0,0,0,0,1,0,0Z" transform="translate(417 201)"/>
    <rect id="Rectangle_109" data-name="Rectangle 109" class="cls-6" width="94" height="32" rx="2" transform="translate(317 225)"/>
    <path id="Rectangle_115" data-name="Rectangle 115" class="cls-5" d="M4,0H4A0,0,0,0,1,4,0V197a0,0,0,0,1,0,0H4a4,4,0,0,1-4-4V4A4,4,0,0,1,4,0Z" transform="translate(179 201)"/>
    <g id="Group_15" data-name="Group 15">
      <rect id="Rectangle_117" data-name="Rectangle 117" class="cls-6" width="96" height="64" rx="2" transform="translate(188 225)"/>
      <path id="Rectangle_116" data-name="Rectangle 116" class="cls-3" d="M4,0H92a4,4,0,0,1,4,4v8a0,0,0,0,1,0,0H0a0,0,0,0,1,0,0V4A4,4,0,0,1,4,0Z" transform="translate(188 225)"/>
    </g>
    <g id="Group_16" data-name="Group 16" transform="translate(0 76)">
      <rect id="Rectangle_117-2" data-name="Rectangle 117" class="cls-6" width="96" height="64" rx="2" transform="translate(188 225)"/>
      <path id="Rectangle_116-2" data-name="Rectangle 116" class="cls-3" d="M4,0H92a4,4,0,0,1,4,4v8a0,0,0,0,1,0,0H0a0,0,0,0,1,0,0V4A4,4,0,0,1,4,0Z" transform="translate(188 225)"/>
    </g>
    <rect id="Rectangle_119" data-name="Rectangle 119" class="cls-6" width="94" height="24" rx="2" transform="translate(317 265)"/>
    <rect id="Rectangle_120" data-name="Rectangle 120" class="cls-6" width="94" height="85" rx="2" transform="translate(317 297)"/>
    <path id="Rectangle_102-2" data-name="Rectangle 102" class="cls-3" d="M2,0H70a2,2,0,0,1,2,2V7a0,0,0,0,1,0,0H0A0,0,0,0,1,0,7V2A2,2,0,0,1,2,0Z" transform="translate(328 396)"/>
  </g>
</svg>
