<svg xmlns="http://www.w3.org/2000/svg" xmlns:xlink="http://www.w3.org/1999/xlink" viewBox="0 0 400 238"><defs><style>.cls-1{fill:#4c4c4c;}.cls-2{fill:#686868;}.cls-3{fill:#f16565;}.cls-3,.cls-4,.cls-5,.cls-6{opacity:0.5;}.cls-4{fill:#ffc743;}.cls-5{fill:#74e67f;}.cls-7{fill:url(#linear-gradient);}.cls-8{fill:url(#linear-gradient-2);}.cls-9{fill:url(#linear-gradient-3);}.cls-10{fill:url(#linear-gradient-4);}.cls-11{fill:url(#linear-gradient-5);}.cls-12{fill:url(#linear-gradient-6);}</style><linearGradient id="linear-gradient" x1="-1157.46" y1="42.61" x2="-1158.09" y2="42.49" gradientTransform="translate(82859.46 -2212.8) scale(71.36 55.75)" gradientUnits="userSpaceOnUse"><stop offset="0.12" stop-color="#00994f"/><stop offset="0.53" stop-color="#6bb452"/><stop offset="0.84" stop-color="#9cc854"/><stop offset="1" stop-color="#b1d355"/></linearGradient><linearGradient id="linear-gradient-2" x1="-1154.59" y1="37.21" x2="-1154.59" y2="38.49" gradientTransform="translate(67011.08 -2915.99) scale(57.83 80.13)" gradientUnits="userSpaceOnUse"><stop offset="0" stop-color="#06a94e"/><stop offset="0.15" stop-color="#5ab450"/><stop offset="0.32" stop-color="#81c052"/><stop offset="0.48" stop-color="#9bca53"/><stop offset="0.63" stop-color="#abd155"/><stop offset="0.75" stop-color="#b1d355"/></linearGradient><linearGradient id="linear-gradient-3" x1="-1156.43" y1="37.23" x2="-1156.43" y2="38.51" gradientTransform="translate(75217.3 -2911.64) scale(64.9 79.98)" xlink:href="#linear-gradient-2"/><linearGradient id="linear-gradient-4" x1="-1137.13" y1="44.16" x2="-1137.13" y2="45.2" gradientTransform="translate(32540.63 -2046.75) scale(28.45 48.92)" gradientUnits="userSpaceOnUse"><stop offset="0.19" stop-color="#00994f"/><stop offset="0.54" stop-color="#74b753"/><stop offset="0.78" stop-color="#b1d355"/></linearGradient><linearGradient id="linear-gradient-5" x1="-1161.86" y1="37.8" x2="-1161.48" y2="36.61" gradientTransform="translate(116495.39 -3004.16) scale(100.12 84.01)" gradientUnits="userSpaceOnUse"><stop offset="0.05" stop-color="#00994f"/><stop offset="0.13" stop-color="#32a451"/><stop offset="0.25" stop-color="#6fb553"/><stop offset="0.36" stop-color="#92c454"/><stop offset="0.46" stop-color="#a8ce55"/><stop offset="0.52" stop-color="#b1d355"/></linearGradient><linearGradient id="linear-gradient-6" x1="-1151.94" y1="50.54" x2="-1151.05" y2="49.87" gradientTransform="translate(56227.78 -1780.52) scale(48.64 36.96)" gradientUnits="userSpaceOnUse"><stop offset="0" stop-color="#5cb249"/><stop offset="0.48" stop-color="#88c14e"/><stop offset="1" stop-color="#b1d355"/></linearGradient></defs><title>Asset 2</title><g id="Layer_2" data-name="Layer 2"><g id="Layer_1-2" data-name="Layer 1"><rect class="cls-1" width="400" height="238" rx="4"/><path class="cls-2" d="M4,0H396a4,4,0,0,1,4,4V20a0,0,0,0,1,0,0H0a0,0,0,0,1,0,0V4A4,4,0,0,1,4,0Z"/><circle class="cls-3" cx="11" cy="10" r="3"/><circle class="cls-4" cx="21" cy="10" r="3"/><circle class="cls-5" cx="31" cy="10" r="3"/><g id="Logo_Wapple_Default" data-name="Logo/Wapple/Default" class="cls-6"><g id="Woolworths_W_Logo" data-name="Woolworths W Logo"><g id="Group"><path id="Shape" class="cls-7" d="M227.2,167.7a43.6,43.6,0,0,1-9.1-1.1h0a57,57,0,0,1-18,16.2,43.22,43.22,0,0,0,20.8,5.4c28.8,0,48.3-30.1,50.6-55.8C270.6,135.9,264.7,167.7,227.2,167.7Z"/><path id="Shape-2" data-name="Shape" class="cls-8" d="M234.4,87.6c-13.8,0-20.5,8.1-20.5,8.1,14.3,1.4,31.8,11.6,31.8,32.6,0,20.5-13.2,29.7-24.1,32.8-1.1,1.9-2.3,3.7-3.5,5.6a33.17,33.17,0,0,0,9.2,1.1c37.5,0,43.4-32,44.3-35.4a43.49,43.49,0,0,0,.2-5.1C271.8,98.6,250,87.6,234.4,87.6Z"/><path id="Shape-3" data-name="Shape" class="cls-9" d="M173.1,167.7a35.42,35.42,0,0,0,20.5-6.4,22.22,22.22,0,0,1-6.6,1.1c-10.6,0-32.3-7.9-32.3-34,0-21.1,17.5-31.2,31.8-32.6,0,0-6.6-8.1-20.5-8.1-15.5,0-37.4,11-37.4,39.8a29.11,29.11,0,0,0,.3,5.1C129.7,135.9,135.5,167.7,173.1,167.7Z"/><path id="Shape-4" data-name="Shape" class="cls-10" d="M187.2,162.9a10.44,10.44,0,0,0,6.3-1.6h0a40.46,40.46,0,0,0,6.8-6.2h0a36.08,36.08,0,0,1-7.4-21.3c0-10.4,5.5-14.9,7.4-16.2h0a19.25,19.25,0,0,0-10.6-3.7A18.19,18.19,0,0,0,172.6,129h0a7,7,0,0,0-.3,1.4,46.08,46.08,0,0,0-.5,6.8c0,9.8,4.5,19.3,7.7,24.5A26.36,26.36,0,0,0,187.2,162.9Z"/><path id="Shape-5" data-name="Shape" class="cls-11" d="M200.4,104.2c-17.4,0-25.5,12.9-27.8,24.7A18,18,0,0,1,188.8,114c3.7-.2,7.4.8,11.5,3.6h0c4.1,3.1,7.7,8.4,7.7,16.9a32.84,32.84,0,0,1-7.7,20.5h0a34.88,34.88,0,0,1-27.2,12.7c-37.5,0-43.4-31.8-44.3-35.3,2.3,25.6,21.8,55.8,50.6,55.8,28,0,49.5-28.6,49.5-52.5C228.9,119.1,219.5,104.2,200.4,104.2Z"/><path id="Shape-6" data-name="Shape" class="cls-12" d="M200.9,94.4s-6-5.7-6.5-13.7a20.69,20.69,0,0,1,11.1-19.4c21.1-11.5,39.5,5.1,37.4,16,0,0-15.7-7.3-30.3,1.4C202,85.1,200.9,94.4,200.9,94.4Z"/></g></g></g></g></g></svg>