<svg xmlns="http://www.w3.org/2000/svg" xmlns:xlink="http://www.w3.org/1999/xlink" viewBox="0 0 600 600">
  <defs>
    <style>
      .cls-1 {
        clip-path: url(#clip-WX);
      }

      .cls-2 {
        fill: #131313;
      }

      .cls-2, .cls-3, .cls-6 {
        stroke: #fff;
      }

      .cls-3, .cls-9 {
        fill: none;
      }

      .cls-10, .cls-4 {
        fill: #1d1d1d;
      }

      .cls-5, .cls-6 {
        fill: #a5c84d;
      }

      .cls-7 {
        fill: #272727;
      }

      .cls-10, .cls-8 {
        stroke: none;
      }
    </style>
    <clipPath id="clip-WX">
      <rect width="600" height="600"/>
    </clipPath>
  </defs>
  <g id="WX" class="cls-1">
    <g id="Rectangle_93" data-name="Rectangle 93" class="cls-2" transform="translate(59 360)">
      <path class="cls-8" d="M0,0H448a0,0,0,0,1,0,0V4a8,8,0,0,1-8,8H8A8,8,0,0,1,0,4V0A0,0,0,0,1,0,0Z"/>
      <path class="cls-9" d="M1,.5H447a.5.5,0,0,1,.5.5V4a7.5,7.5,0,0,1-7.5,7.5H8A7.5,7.5,0,0,1,.5,4V1A.5.5,0,0,1,1,.5Z"/>
    </g>
    <g id="Rectangle_92" data-name="Rectangle 92" class="cls-2" transform="translate(103 117)">
      <path class="cls-8" d="M12,0H352a12,12,0,0,1,12,12V244a0,0,0,0,1,0,0H0a0,0,0,0,1,0,0V12A12,12,0,0,1,12,0Z"/>
      <path class="cls-9" d="M12,.5H352A11.5,11.5,0,0,1,363.5,12V243a.5.5,0,0,1-.5.5H1a.5.5,0,0,1-.5-.5V12A11.5,11.5,0,0,1,12,.5Z"/>
    </g>
    <g id="Rectangle_94" data-name="Rectangle 94" class="cls-3" transform="translate(115 131)">
      <rect class="cls-8" width="339" height="217" rx="2"/>
      <rect class="cls-9" x="0.5" y="0.5" width="338" height="216" rx="1.5"/>
    </g>
    <path id="Path_28" data-name="Path 28" class="cls-4" d="M5.378,0h322.7C331.051,0,0,207.949,0,206.694V2.271C0,1.017,2.408,0,5.378,0Z" transform="translate(119 135)"/>
    <g id="Woolworths_W_Logo_1_" transform="translate(213 179.992)">
      <g id="Group_2_">
        <path id="Shape_11_" class="cls-5" d="M98.6,104.3a43.6,43.6,0,0,1-9.1-1.1h0a56.966,56.966,0,0,1-18,16.2,43.222,43.222,0,0,0,20.8,5.4c28.8,0,48.3-30.1,50.6-55.8C142,72.5,136.1,104.3,98.6,104.3Z"/>
        <path id="Shape_10_" class="cls-5" d="M105.8,24.2c-13.8,0-20.5,8.1-20.5,8.1,14.3,1.4,31.8,11.6,31.8,32.6,0,20.5-13.2,29.7-24.1,32.8-1.1,1.9-2.3,3.7-3.5,5.6a33.169,33.169,0,0,0,9.2,1.1c37.5,0,43.4-32,44.3-35.4a43.488,43.488,0,0,0,.2-5.1C143.2,35.2,121.4,24.2,105.8,24.2Z"/>
        <path id="Shape_9_" class="cls-5" d="M44.5,104.3A35.422,35.422,0,0,0,65,97.9,22.224,22.224,0,0,1,58.4,99c-10.6,0-32.3-7.9-32.3-34,0-21.1,17.5-31.2,31.8-32.6,0,0-6.6-8.1-20.5-8.1C21.9,24.3,0,35.3,0,64.1a29.106,29.106,0,0,0,.3,5.1C1.1,72.5,6.9,104.3,44.5,104.3Z"/>
        <path id="Shape_8_" class="cls-5" d="M58.6,99.5a10.438,10.438,0,0,0,6.3-1.6h0a40.457,40.457,0,0,0,6.8-6.2h0a36.083,36.083,0,0,1-7.4-21.3c0-10.4,5.5-14.9,7.4-16.2h0a19.249,19.249,0,0,0-10.6-3.7A18.188,18.188,0,0,0,44,65.6h0a7.006,7.006,0,0,0-.3,1.4,46.077,46.077,0,0,0-.5,6.8c0,9.8,4.5,19.3,7.7,24.5A26.36,26.36,0,0,0,58.6,99.5Z"/>
        <path id="Shape_7_" class="cls-5" d="M71.8,40.8C54.4,40.8,46.3,53.7,44,65.5A17.985,17.985,0,0,1,60.2,50.6c3.7-.2,7.4.8,11.5,3.6h0c4.1,3.1,7.7,8.4,7.7,16.9a32.838,32.838,0,0,1-7.7,20.5h0a34.88,34.88,0,0,1-27.2,12.7C7,104.3,1.1,72.5.2,69,2.5,94.6,22,124.8,50.8,124.8c28,0,49.5-28.6,49.5-52.5C100.3,55.7,90.9,40.8,71.8,40.8Z"/>
        <path id="Shape_6_" class="cls-5" d="M72.3,31s-6-5.7-6.5-13.7A20.686,20.686,0,0,1,76.9-2.1C98-13.6,116.4,3,114.3,13.9c0,0-15.7-7.3-30.3,1.4C73.4,21.7,72.3,31,72.3,31Z"/>
      </g>
    </g>
    <g id="Rectangle_91" data-name="Rectangle 91" class="cls-6" transform="translate(351 168)">
      <rect class="cls-8" width="144" height="204" rx="8"/>
      <rect class="cls-9" x="0.5" y="0.5" width="143" height="203" rx="7.5"/>
    </g>
    <g id="Rectangle_97" data-name="Rectangle 97" class="cls-2" transform="translate(356 174)">
      <rect class="cls-8" width="134" height="192" rx="4"/>
      <rect class="cls-9" x="0.5" y="0.5" width="133" height="191" rx="3.5"/>
    </g>
    <g id="Path_27" data-name="Path 27" class="cls-7" transform="translate(360 178)">
      <path class="cls-8" d="M 0.4999918043613434 180.5617828369141 L 0.4999918043613434 2.000011444091797 C 0.4999918043613434 1.172897934913635 1.199309945106506 0.5000115036964417 2.058900833129883 0.5000115036964417 L 124.7672805786133 0.5000115036964417 C 121.5447845458984 5.755955219268799 97.3121337890625 41.21195220947266 62.77465057373047 91.18889617919922 C 31.35246658325195 136.6579132080078 5.44553804397583 173.8291625976563 0.4999918043613434 180.5617828369141 Z"/>
      <path class="cls-10" d="M 2.058891296386719 1 C 1.475028991699219 1 1.000007629394531 1.448593139648438 1.000007629394531 2 L 1.000007629394531 179.0235290527344 C 7.630195617675781 169.819580078125 32.5543212890625 134.0391235351563 62.33345794677734 90.94783020019531 C 95.50503540039063 42.94758605957031 119.242546081543 8.23907470703125 123.8639678955078 1 L 2.058891296386719 1 M 2.058891296386719 0 L 125.5922470092773 0 C 126.7258682250977 0 0.7722091674804688 182.0049743652344 0.00344085693359375 182.0049743652344 C 0.0010833740234375 182.0049743652344 7.62939453125e-06 182.0033721923828 7.62939453125e-06 182 L 7.62939453125e-06 2 C 7.62939453125e-06 0.8954315185546875 0.9217910766601563 0 2.058891296386719 0 Z"/>
    </g>
    <g id="Rectangle_90" data-name="Rectangle 90" class="cls-2" transform="translate(325 244)">
      <rect class="cls-8" width="60" height="128" rx="8"/>
      <rect class="cls-9" x="0.5" y="0.5" width="59" height="127" rx="7.5"/>
    </g>
    <path id="Path_26" data-name="Path 26" class="cls-4" d="M4,0H45.775C47.984,0,0,113.209,0,111V4A4,4,0,0,1,4,0Z" transform="translate(332 251)"/>
    <g id="Rectangle_95" data-name="Rectangle 95" class="cls-3" transform="translate(328 247)">
      <rect class="cls-8" width="54" height="122" rx="6"/>
      <rect class="cls-9" x="0.5" y="0.5" width="53" height="121" rx="5.5"/>
    </g>
    <g id="Rectangle_96" data-name="Rectangle 96" class="cls-6" transform="translate(338 247)">
      <path class="cls-8" d="M0,0H34a0,0,0,0,1,0,0V2a4,4,0,0,1-4,4H4A4,4,0,0,1,0,2V0A0,0,0,0,1,0,0Z"/>
      <path class="cls-9" d="M1,.5H33a.5.5,0,0,1,.5.5V2A3.5,3.5,0,0,1,30,5.5H4A3.5,3.5,0,0,1,.5,2V1A.5.5,0,0,1,1,.5Z"/>
    </g>
  </g>
</svg>
