<svg xmlns="http://www.w3.org/2000/svg" xmlns:xlink="http://www.w3.org/1999/xlink" viewBox="0 0 600 600">
  <defs>
    <style>
      .cls-1 {
        clip-path: url(#clip-WX_1);
      }

      .cls-2 {
        fill: #131313;
      }

      .cls-2, .cls-3, .cls-6 {
        stroke: #fff;
      }

      .cls-3, .cls-9 {
        fill: none;
      }

      .cls-10, .cls-4 {
        fill: #1d1d1d;
      }

      .cls-5, .cls-6 {
        fill: #a5c84d;
      }

      .cls-7 {
        fill: #272727;
      }

      .cls-10, .cls-8 {
        stroke: none;
      }
    </style>
    <clipPath id="clip-WX_1">
      <rect width="600" height="600"/>
    </clipPath>
  </defs>
  <g id="WX_1" data-name="WX – 1" class="cls-1">
    <g id="Group_24" data-name="Group 24" transform="translate(33 18)">
      <g id="Rectangle_93" data-name="Rectangle 93" class="cls-2" transform="translate(76 379.003)">
        <path class="cls-8" d="M0,0H383a0,0,0,0,1,0,0V4a8,8,0,0,1-8,8H8A8,8,0,0,1,0,4V0A0,0,0,0,1,0,0Z"/>
        <path class="cls-9" d="M1,.5H382a.5.5,0,0,1,.5.5V4a7.5,7.5,0,0,1-7.5,7.5H8A7.5,7.5,0,0,1,.5,4V1A.5.5,0,0,1,1,.5Z"/>
      </g>
      <g id="Rectangle_92" data-name="Rectangle 92" class="cls-2" transform="translate(120 173)">
        <path class="cls-8" d="M12,0H287a12,12,0,0,1,12,12V207a0,0,0,0,1,0,0H0a0,0,0,0,1,0,0V12A12,12,0,0,1,12,0Z"/>
        <path class="cls-9" d="M12,.5H287A11.5,11.5,0,0,1,298.5,12V206a.5.5,0,0,1-.5.5H1a.5.5,0,0,1-.5-.5V12A11.5,11.5,0,0,1,12,.5Z"/>
      </g>
      <g id="Rectangle_94" data-name="Rectangle 94" class="cls-3" transform="translate(132 187)">
        <rect class="cls-8" width="274" height="180.002" rx="2"/>
        <rect class="cls-9" x="0.5" y="0.5" width="273" height="179.002" rx="1.5"/>
      </g>
      <path id="Path_28" data-name="Path 28" class="cls-4" d="M4.313,0H263.084C265.466,0,0,170.727,0,169.7V1.865C0,.835,1.931,0,4.313,0Z" transform="translate(136 191)"/>
      <g id="Woolworths_W_Logo_1_" transform="translate(197.159 213.022)">
        <g id="Group_2_">
          <path id="Shape_11_" class="cls-5" d="M98.6,104.3a43.6,43.6,0,0,1-9.1-1.1h0a56.966,56.966,0,0,1-18,16.2,43.222,43.222,0,0,0,20.8,5.4c28.8,0,48.3-30.1,50.6-55.8C142,72.5,136.1,104.3,98.6,104.3Z" transform="translate(0 5.992)"/>
          <path id="Shape_10_" class="cls-5" d="M105.8,24.2c-13.8,0-20.5,8.1-20.5,8.1,14.3,1.4,31.8,11.6,31.8,32.6,0,20.5-13.2,29.7-24.1,32.8-1.1,1.9-2.3,3.7-3.5,5.6a33.169,33.169,0,0,0,9.2,1.1c37.5,0,43.4-32,44.3-35.4a43.488,43.488,0,0,0,.2-5.1C143.2,35.2,121.4,24.2,105.8,24.2Z" transform="translate(0 5.992)"/>
          <path id="Shape_9_" class="cls-5" d="M44.5,104.3A35.422,35.422,0,0,0,65,97.9,22.224,22.224,0,0,1,58.4,99c-10.6,0-32.3-7.9-32.3-34,0-21.1,17.5-31.2,31.8-32.6,0,0-6.6-8.1-20.5-8.1C21.9,24.3,0,35.3,0,64.1a29.106,29.106,0,0,0,.3,5.1C1.1,72.5,6.9,104.3,44.5,104.3Z" transform="translate(0 5.992)"/>
          <path id="Shape_8_" class="cls-5" d="M58.6,99.5a10.438,10.438,0,0,0,6.3-1.6h0a40.457,40.457,0,0,0,6.8-6.2h0a36.083,36.083,0,0,1-7.4-21.3c0-10.4,5.5-14.9,7.4-16.2h0a19.249,19.249,0,0,0-10.6-3.7A18.188,18.188,0,0,0,44,65.6h0a7.006,7.006,0,0,0-.3,1.4,46.077,46.077,0,0,0-.5,6.8c0,9.8,4.5,19.3,7.7,24.5A26.36,26.36,0,0,0,58.6,99.5Z" transform="translate(0 5.992)"/>
          <path id="Shape_7_" class="cls-5" d="M71.8,40.8C54.4,40.8,46.3,53.7,44,65.5A17.985,17.985,0,0,1,60.2,50.6c3.7-.2,7.4.8,11.5,3.6h0c4.1,3.1,7.7,8.4,7.7,16.9a32.838,32.838,0,0,1-7.7,20.5h0a34.88,34.88,0,0,1-27.2,12.7C7,104.3,1.1,72.5.2,69,2.5,94.6,22,124.8,50.8,124.8c28,0,49.5-28.6,49.5-52.5C100.3,55.7,90.9,40.8,71.8,40.8Z" transform="translate(0 5.992)"/>
          <path id="Shape_6_" class="cls-5" d="M72.3,31s-6-5.7-6.5-13.7A20.686,20.686,0,0,1,76.9-2.1C98-13.6,116.4,3,114.3,13.9c0,0-15.7-7.3-30.3,1.4C73.4,21.7,72.3,31,72.3,31Z" transform="translate(0 5.992)"/>
        </g>
      </g>
      <g id="Rectangle_91" data-name="Rectangle 91" class="cls-6" transform="translate(303 205.216)">
        <rect class="cls-8" width="144" height="185.786" rx="8"/>
        <rect class="cls-9" x="0.5" y="0.5" width="143" height="184.786" rx="7.5"/>
      </g>
      <g id="Rectangle_97" data-name="Rectangle 97" class="cls-2" transform="translate(308 205.524)">
        <rect class="cls-8" width="134" height="179.478" rx="4"/>
        <rect class="cls-9" x="0.5" y="0.5" width="133" height="178.478" rx="3.5"/>
      </g>
      <g id="Path_27" data-name="Path 27" class="cls-7" transform="translate(312 206.678)">
        <path class="cls-8" d="M 0.4999997019767761 170.9461822509766 L 0.4999997019767761 1.893665671348572 C 0.4999997019767761 1.125209212303162 1.199325799942017 0.500013530254364 2.05889105796814 0.500013530254364 L 124.7408752441406 0.500013530254364 C 121.3947448730469 5.642719268798828 97.19376373291016 39.16780090332031 62.76313018798828 86.3411865234375 C 31.33531188964844 129.4004058837891 5.422427177429199 164.6032867431641 0.4999997019767761 170.9461822509766 Z"/>
        <path class="cls-10" d="M 2.058876037597656 1 C 1.475013732910156 1 0.9999923706054688 1.40087890625 0.9999923706054688 1.893661499023438 L 0.9999923706054688 169.4741058349609 C 7.601669311523438 160.7988128662109 32.53737640380859 126.905143737793 62.32888031005859 86.08804321289063 C 95.34601593017578 40.85150146484375 119.0286254882813 8.066818237304688 123.8084487915039 1 L 2.058876037597656 1 M 2.058876037597656 0 L 125.5922393798828 0 C 126.7258834838867 0 0.7721939086914063 172.3285980224609 0.00342559814453125 172.3285980224609 C 0.001068115234375 172.3285980224609 -7.62939453125e-06 172.3270721435547 -7.62939453125e-06 172.3238830566406 L -7.62939453125e-06 1.893661499023438 C -7.62939453125e-06 0.847808837890625 0.921783447265625 0 2.058876037597656 0 Z"/>
      </g>
      <g id="Rectangle_90" data-name="Rectangle 90" class="cls-2" transform="translate(297.437 263.003)">
        <rect class="cls-8" width="60" height="128" rx="8"/>
        <rect class="cls-9" x="0.5" y="0.5" width="59" height="127" rx="7.5"/>
      </g>
      <path id="Path_26" data-name="Path 26" class="cls-4" d="M4,0H45.775C47.984,0,0,113.209,0,111V4A4,4,0,0,1,4,0Z" transform="translate(304.874 270.003)"/>
      <g id="Rectangle_95" data-name="Rectangle 95" class="cls-3" transform="translate(300.622 266.003)">
        <rect class="cls-8" width="54" height="122" rx="6"/>
        <rect class="cls-9" x="0.5" y="0.5" width="53" height="121" rx="5.5"/>
      </g>
      <g id="Rectangle_96" data-name="Rectangle 96" class="cls-6" transform="translate(311.195 283.683)">
        <path class="cls-8" d="M0,0H34a0,0,0,0,1,0,0V2a4,4,0,0,1-4,4H4A4,4,0,0,1,0,2V0A0,0,0,0,1,0,0Z"/>
        <path class="cls-9" d="M1,.5H33a.5.5,0,0,1,.5.5V2A3.5,3.5,0,0,1,30,5.5H4A3.5,3.5,0,0,1,.5,2V1A.5.5,0,0,1,1,.5Z"/>
      </g>
    </g>
  </g>
</svg>
